<svg viewBox="0 0 24 24" xmlns="http://www.w3.org/2000/svg" aria-hidden="true">
  <circle cx="12" cy="12" r="4" fill="currentColor" />
  <path fill="currentColor" d="M12 1.5a1 1 0 0 1 1 1V5a1 1 0 1 1-2 0V2.5a1 1 0 0 1 1-1Zm0 17a1 1 0 0 1 1 1v2.5a1 1 0 1 1-2 0V19.5a1 1 0 0 1 1-1ZM4.22 4.22a1 1 0 0 1 1.41 0l1.77 1.77a1 1 0 1 1-1.41 1.41L4.22 5.64a1 1 0 0 1 0-1.42Zm13.19 13.19a1 1 0 0 1 1.41 0l1.77 1.77a1 1 0 0 1-1.41 1.41l-1.77-1.77a1 1 0 0 1 0-1.41ZM1.5 12a1 1 0 0 1 1-1h2.5a1 1 0 1 1 0 2H2.5a1 1 0 0 1-1-1Zm17 0a1 1 0 0 1 1-1h2.5a1 1 0 1 1 0 2H18.5a1 1 0 0 1-1-1ZM4.22 19.78a1 1 0 0 1 0-1.41l1.77-1.77a1 1 0 1 1 1.41 1.41l-1.77 1.77a1 1 0 0 1-1.41 0Zm13.19-13.19a1 1 0 0 1 0-1.41l1.77-1.77a1 1 0 1 1 1.41 1.41l-1.77 1.77a1 1 0 0 1-1.41 0Z" />
</svg>
